<svg width="154" height="35" viewBox="0 0 154 35" fill="none" xmlns="http://www.w3.org/2000/svg">
<path d="M8.05114 35H0.142046L12.1932 0.0909081H21.7045L33.7386 35H25.8295L17.0852 8.06818H16.8125L8.05114 35ZM7.55682 21.2784H26.2386V27.0398H7.55682V21.2784ZM37.9403 35V0.0909081H51.7131C54.3608 0.0909081 56.6165 0.59659 58.4801 1.60795C60.3438 2.60795 61.7642 4 62.7415 5.78409C63.7301 7.55682 64.2244 9.60227 64.2244 11.9205C64.2244 14.2386 63.7244 16.2841 62.7244 18.0568C61.7244 19.8295 60.2756 21.2102 58.3778 22.1989C56.4915 23.1875 54.2074 23.6818 51.5256 23.6818H42.7472V17.767H50.3324C51.7528 17.767 52.9233 17.5227 53.8438 17.0341C54.7756 16.5341 55.4688 15.8466 55.9233 14.9716C56.3892 14.0852 56.6222 13.0682 56.6222 11.9205C56.6222 10.7614 56.3892 9.75 55.9233 8.88636C55.4688 8.01136 54.7756 7.33523 53.8438 6.85795C52.9119 6.36932 51.7301 6.125 50.2983 6.125H45.321V35H37.9403ZM69.0185 35V0.0909081H82.7912C85.4389 0.0909081 87.6946 0.59659 89.5582 1.60795C91.4219 2.60795 92.8423 4 93.8196 5.78409C94.8082 7.55682 95.3026 9.60227 95.3026 11.9205C95.3026 14.2386 94.8026 16.2841 93.8026 18.0568C92.8026 19.8295 91.3537 21.2102 89.456 22.1989C87.5696 23.1875 85.2855 23.6818 82.6037 23.6818H73.8253V17.767H81.4105C82.831 17.767 84.0014 17.5227 84.9219 17.0341C85.8537 16.5341 86.5469 15.8466 87.0014 14.9716C87.4673 14.0852 87.7003 13.0682 87.7003 11.9205C87.7003 10.7614 87.4673 9.75 87.0014 8.88636C86.5469 8.01136 85.8537 7.33523 84.9219 6.85795C83.9901 6.36932 82.8082 6.125 81.3764 6.125H76.3991V35H69.0185ZM100.097 35V0.0909081H107.477V28.9148H122.443V35H100.097ZM120.832 0.0909081H129.099L137.06 15.125H137.401L145.361 0.0909081H153.628L140.895 22.6591V35H133.565V22.6591L120.832 0.0909081Z" fill="white"/>
</svg>
